<svg version="1.1" xmlns="http://www.w3.org/2000/svg" viewBox="0 0 220 200" width="220" height="200">
  <!-- svg-source:excalidraw -->
  
  <defs>
    <style class="style-fonts">
      @font-face {
        font-family: "Virgil";
        src: url("https://excalidraw.com/Virgil.woff2");
      }
      @font-face {
        font-family: "Cascadia";
        src: url("https://excalidraw.com/Cascadia.woff2");
      }
    </style>
  </defs>
  <rect x="0" y="0" width="220" height="200" fill="#ffffff"></rect><g stroke-linecap="round" transform="translate(10 10) rotate(0 100 90)"><path d="M32 0 L168 0 L175.5 0.5 L182 2 L187.5 4.5 L192 8 L195.5 12.5 L198 18 L199.5 24.5 L200 32 L200 148 L199.5 155.5 L198 162 L195.5 167.5 L192 172 L187.5 175.5 L182 178 L175.5 179.5 L168 180 L32 180 L24.5 179.5 L18 178 L12.5 175.5 L8 172 L4.5 167.5 L2 162 L0.5 155.5 L0 148 L0.5 24.5 L2 18 L4.5 12.5 L8 8 L12.5 4.5 L18 2 L24.5 0.5 L32 0" stroke="none" stroke-width="0" fill="#228be6"></path><path d="M32 0 M32 0 C65.06 0, 98.12 0, 168 0 M32 0 C85.51 0, 139.01 0, 168 0 M168 0 C189.33 0, 200 10.67, 200 32 M168 0 C189.33 0, 200 10.67, 200 32 M200 32 C200 70.71, 200 109.41, 200 148 M200 32 C200 71.79, 200 111.58, 200 148 M200 148 C200 169.33, 189.33 180, 168 180 M200 148 C200 169.33, 189.33 180, 168 180 M168 180 C129.06 180, 90.13 180, 32 180 M168 180 C115.42 180, 62.84 180, 32 180 M32 180 C10.67 180, 0 169.33, 0 148 M32 180 C10.67 180, 0 169.33, 0 148 M0 148 C0 123.65, 0 99.29, 0 32 M0 148 C0 116.63, 0 85.25, 0 32 M0 32 C0 10.67, 10.67 0, 32 0 M0 32 C0 10.67, 10.67 0, 32 0" stroke="#ffff" stroke-width="1" fill="none"></path></g><g stroke-linecap="round"><g transform="translate(71.34557119022622 57.65659356625099) rotate(0 38.905649756791945 42.937467028871225)"><path d="M0.77 -0.11 C0.98 12.62, 1.3 62.3, 1.25 76.27 C1.2 90.23, 0 81.58, 0.45 83.68 C0.9 85.78, 0.96 87.67, 3.96 88.86 C6.96 90.05, 12.01 90.42, 18.45 90.83 C24.88 91.25, 34.96 91.43, 42.59 91.34 C50.22 91.24, 58.5 91.03, 64.21 90.27 C69.92 89.51, 74.58 87.88, 76.83 86.77 C79.08 85.65, 77.77 85.27, 77.72 83.6 C77.66 81.93, 76.46 89.43, 76.5 76.75 C76.54 64.06, 77.84 20.39, 77.97 7.49 C78.09 -5.41, 78.24 1.46, 77.23 -0.64 C76.23 -2.73, 74.68 -4.05, 71.94 -5.08 C69.21 -6.11, 66.61 -6.49, 60.83 -6.81 C55.04 -7.14, 44.42 -7.04, 37.21 -7.02 C30 -7, 23.3 -7.31, 17.57 -6.71 C11.84 -6.12, 5.59 -4.69, 2.82 -3.44 C0.04 -2.19, 1.5 0.12, 0.91 0.77 C0.32 1.42, -0.62 0.44, -0.73 0.46 M-0.28 -1.21 C-0.14 11.17, 0.79 60.08, 0.83 74.38 C0.86 88.68, -0.64 82.55, -0.08 84.6 C0.48 86.64, 1.3 85.6, 4.19 86.66 C7.08 87.72, 11.13 89.83, 17.26 90.96 C23.39 92.09, 33 93.21, 40.97 93.44 C48.93 93.67, 59.15 93.52, 65.05 92.33 C70.95 91.14, 74.51 88.01, 76.37 86.3 C78.23 84.6, 76.14 83.77, 76.19 82.09 C76.24 80.41, 76.26 89, 76.65 76.22 C77.04 63.44, 78.66 18.32, 78.53 5.41 C78.41 -7.5, 76.97 0.13, 75.9 -1.24 C74.83 -2.6, 74.18 -1.78, 72.09 -2.8 C70.01 -3.81, 69.18 -6.62, 63.39 -7.34 C57.59 -8.05, 44.86 -7.4, 37.32 -7.07 C29.79 -6.74, 23.55 -6.07, 18.16 -5.36 C12.76 -4.64, 7.96 -3.95, 4.96 -2.79 C1.95 -1.64, 0.76 0.94, 0.13 1.57 C-0.5 2.2, 1.04 1.29, 1.16 0.96" stroke="#ffff" stroke-width="1" fill="none"></path></g></g><mask></mask><g stroke-linecap="round"><g transform="translate(71.95118432027937 115.1817148451488) rotate(0 39.09110290412531 3.6915724357835984)"><path d="M0.99 0.45 C1.28 0.91, 0.85 1.58, 2.49 2.67 C4.13 3.77, 7.4 6.19, 10.85 7.01 C14.3 7.82, 17.96 7.53, 23.2 7.57 C28.44 7.62, 35.65 7.41, 42.28 7.25 C48.9 7.1, 57.3 7.38, 62.96 6.64 C68.61 5.91, 73.7 4.05, 76.21 2.84 C78.73 1.63, 78.01 -0.07, 78.08 -0.63 M0.06 -0.36 C0.16 0.25, 0.11 2.91, 1.77 3.81 C3.44 4.71, 6.4 4.25, 10.06 5.02 C13.72 5.79, 18.5 8.06, 23.73 8.41 C28.96 8.77, 35.24 7.64, 41.43 7.13 C47.63 6.62, 55.52 6.31, 60.91 5.35 C66.29 4.39, 71.04 2.45, 73.76 1.38 C76.47 0.3, 76.49 -0.54, 77.19 -1.1" stroke="#ffff" stroke-width="1" fill="none"></path></g></g><mask></mask><g stroke-linecap="round"><g transform="translate(70.98752235442396 86.04109573833642) rotate(0 38.911719926841954 3.538849806001224)"><path d="M0.44 -0.77 C0.61 -0.16, 0.18 3.02, 2.01 4.12 C3.84 5.22, 7.8 5.33, 11.44 5.83 C15.08 6.32, 18.85 6.77, 23.85 7.09 C28.85 7.42, 34.82 7.79, 41.45 7.75 C48.09 7.72, 57.99 7.71, 63.66 6.89 C69.32 6.07, 73.26 4.07, 75.42 2.84 C77.58 1.6, 76.15 -0.18, 76.62 -0.53 M-0.79 1.44 C-0.87 1.67, -0.92 1.45, 1.04 2.35 C3 3.26, 7.62 5.99, 10.96 6.88 C14.29 7.77, 16.19 7.51, 21.06 7.68 C25.93 7.85, 33.36 8.22, 40.18 7.89 C46.99 7.57, 55.96 6.82, 61.97 5.73 C67.97 4.64, 73.42 2.48, 76.2 1.37 C78.98 0.25, 78.53 -0.71, 78.64 -0.95" stroke="#ffff" stroke-width="1" fill="none"></path></g></g><mask></mask><g stroke-linecap="round" transform="translate(70.00000000000011 50.5862808311868) rotate(0 38.61318664976528 7.809226500983954)"><path d="M46.5 0.51 C54.27 0.75, 63.98 2.68, 69.06 4 C74.14 5.33, 77.38 7.09, 76.98 8.45 C76.58 9.81, 72.27 10.9, 66.64 12.15 C61.01 13.4, 51.21 15.56, 43.18 15.95 C35.16 16.34, 25.47 15.48, 18.51 14.48 C11.54 13.49, 4.12 11.69, 1.4 9.97 C-1.32 8.24, -0.99 5.7, 2.2 4.13 C5.4 2.55, 11.73 1.19, 20.58 0.5 C29.43 -0.19, 48.6 -0.13, 55.3 -0.02 C61.99 0.08, 61.18 0.78, 60.76 1.16 M51.86 1.59 C59.52 1.93, 67.31 2.6, 71.51 3.85 C75.72 5.1, 78.62 7.3, 77.1 9.1 C75.58 10.89, 69.01 13.33, 62.41 14.63 C55.81 15.93, 45.79 17.18, 37.49 16.9 C29.19 16.62, 19 14.31, 12.61 12.94 C6.23 11.57, 0.27 10.18, -0.81 8.7 C-1.9 7.23, 1.78 5.56, 6.13 4.09 C10.48 2.61, 17.6 0.55, 25.27 -0.16 C32.95 -0.86, 47.68 -0.18, 52.15 -0.15 C56.62 -0.11, 52.37 0, 52.09 0.05" stroke="#ffff" stroke-width="1" fill="none"></path></g><g stroke-linecap="round" transform="translate(133.005023075964 72.23926396466675) rotate(0 5.659132642799307 6.141891304980987)"><path d="M7.96 1.64 C9.11 2.15, 10.26 3.21, 10.73 4.12 C11.21 5.03, 11.2 5.83, 10.83 7.11 C10.46 8.38, 9.34 10.9, 8.5 11.77 C7.66 12.64, 6.99 12.62, 5.76 12.34 C4.54 12.06, 2.25 11.2, 1.14 10.09 C0.03 8.97, -0.8 7.02, -0.88 5.67 C-0.95 4.32, -0.33 3.01, 0.71 1.97 C1.74 0.93, 3.95 -0.38, 5.35 -0.59 C6.74 -0.81, 8.42 0.18, 9.06 0.68 C9.69 1.17, 9.11 2.35, 9.14 2.4 M6.36 0.11 C7.52 0.09, 9.85 1.1, 10.47 2.27 C11.08 3.44, 10.38 5.6, 10.05 7.13 C9.73 8.66, 9.31 10.76, 8.49 11.46 C7.67 12.15, 6.32 11.41, 5.12 11.32 C3.92 11.22, 1.9 11.39, 1.28 10.88 C0.67 10.37, 1.54 9.53, 1.42 8.26 C1.29 6.99, 0.18 4.63, 0.54 3.28 C0.9 1.93, 2.38 0.79, 3.55 0.17 C4.72 -0.45, 7 -0.27, 7.57 -0.43 C8.15 -0.6, 7.15 -0.94, 7 -0.81" stroke="#ffff" stroke-width="1" fill="none"></path></g><g stroke-linecap="round" transform="translate(133.005023075964 99.20214369503276) rotate(0 5.659132642799307 6.141891304980987)"><path d="M6.34 0.3 C7.52 0.1, 8.91 0.1, 9.72 1.12 C10.54 2.14, 10.99 4.91, 11.2 6.41 C11.42 7.91, 11.8 9.18, 11.01 10.12 C10.22 11.06, 7.97 11.92, 6.47 12.04 C4.98 12.17, 3.15 11.56, 2.05 10.89 C0.95 10.22, 0.01 9.25, -0.15 8.01 C-0.3 6.77, 0.61 4.7, 1.12 3.44 C1.62 2.18, 1.97 0.88, 2.9 0.46 C3.84 0.04, 5.89 1.06, 6.72 0.94 C7.55 0.82, 7.81 -0.25, 7.88 -0.25 M8.16 0.43 C9.11 0.96, 9.11 2.74, 9.38 4.11 C9.65 5.48, 10.04 7.67, 9.77 8.67 C9.49 9.66, 8.7 9.56, 7.75 10.07 C6.79 10.59, 4.82 11.63, 4.03 11.76 C3.24 11.89, 3.64 11.75, 3 10.85 C2.37 9.96, 0.48 7.8, 0.22 6.38 C-0.03 4.95, 0.73 3.42, 1.48 2.32 C2.22 1.22, 3.62 0.25, 4.71 -0.24 C5.8 -0.73, 7.52 -0.68, 8.03 -0.61 C8.54 -0.54, 8.07 -0.06, 7.75 0.18" stroke="#ffff" stroke-width="1" fill="none"></path></g><g stroke-linecap="round" transform="translate(133.005023075964 128.50721138450018) rotate(0 5.659132642799307 6.141891304980987)"><path d="M7.9 -0.39 C8.98 0.11, 10 2.6, 10.7 3.99 C11.39 5.37, 12.41 6.73, 12.05 7.91 C11.7 9.09, 9.89 10.46, 8.58 11.08 C7.28 11.7, 5.49 11.79, 4.24 11.63 C2.99 11.46, 1.66 11.05, 1.1 10.1 C0.53 9.15, 0.81 7.23, 0.83 5.91 C0.85 4.58, 0.68 2.97, 1.22 2.15 C1.76 1.33, 2.73 1.3, 4.08 0.99 C5.43 0.68, 8.42 0.21, 9.31 0.31 C10.21 0.41, 9.48 1.46, 9.45 1.61 M4.4 0.88 C5.24 1.01, 6.96 2.17, 7.86 2.72 C8.76 3.27, 9.61 3.19, 9.81 4.18 C10.02 5.18, 9.29 7.38, 9.1 8.69 C8.92 10, 9.57 11.61, 8.7 12.04 C7.84 12.47, 5.1 11.83, 3.89 11.26 C2.67 10.69, 1.88 9.74, 1.39 8.62 C0.89 7.5, 0.76 5.9, 0.91 4.53 C1.07 3.16, 1.5 1.21, 2.3 0.4 C3.1 -0.42, 5.38 -0.3, 5.69 -0.37 C6.01 -0.44, 4.05 -0.12, 4.18 -0.04" stroke="#ffff" stroke-width="1" fill="none"></path></g><g stroke-linecap="round"><g transform="translate(62.557535548353485 147.35687740411322) rotate(0 23.30463669611646 -7.68511664086472)"><path d="M0.27 -0.46 C5.57 -3.01, 23.25 -16.22, 31.15 -16.03 C39.04 -15.84, 44.9 -1.9, 47.66 0.66 M-1.05 -1.75 C4.68 -4.02, 25.42 -14.56, 33.38 -14.49 C41.33 -14.42, 44.27 -3.76, 46.67 -1.33" stroke="#ffff" stroke-width="1" fill="none"></path></g></g><mask></mask><g stroke-linecap="round"><g transform="translate(30.49689843244846 131.32655884616076) rotate(0 15.959755362159683 8.04864380136351)"><path d="M-0.5 -0.18 C2.04 2.2, 9.45 12.49, 14.93 15.36 C20.42 18.23, 29.4 16.86, 32.42 17.05 M1.44 -1.33 C4.36 1.72, 12.04 13.83, 17.07 16.55 C22.1 19.26, 28.88 14.8, 31.63 14.96" stroke="#ffff" stroke-width="1" fill="none"></path></g></g><mask></mask><g stroke-linecap="round"><g transform="translate(61.97280385368322 162.71780944639409) rotate(0 24.482355450825253 -7.969458655087635)"><path d="M0.88 -0.18 C6.33 -2.62, 25.13 -15.09, 33.17 -14.96 C41.21 -14.83, 46.55 -2.03, 49.09 0.58 M-0.12 -1.32 C5.23 -4.04, 24.64 -16.5, 32.8 -16.52 C40.97 -16.54, 46.19 -3.97, 48.84 -1.45" stroke="#ffff" stroke-width="1" fill="none"></path></g></g><mask></mask><g stroke-linecap="round"><g transform="translate(29.912166737778193 146.68749088844163) rotate(0 16.48342687015338 9.282582067265764)"><path d="M1.11 1.07 C3.8 3.87, 11.76 13.91, 17.03 16.61 C22.3 19.32, 30.15 17.15, 32.73 17.3 M0.23 0.59 C2.78 3.05, 11.29 12.34, 16.6 14.8 C21.92 17.26, 29.4 15.23, 32.11 15.34" stroke="#ffff" stroke-width="1" fill="none"></path></g></g><mask></mask><g stroke-linecap="round"><g transform="translate(143.7150058964453 146.50196675245832) rotate(0 24.166554639465517 -7.579216860668765)"><path d="M-0.26 -0.83 C4.96 -3.22, 23.55 -14.99, 31.69 -14.95 C39.83 -14.9, 45.82 -3.08, 48.59 -0.57 M1.81 1.34 C6.81 -1.3, 22.83 -16.35, 30.54 -16.5 C38.26 -16.65, 45.06 -2.52, 48.09 0.45" stroke="#ffff" stroke-width="1" fill="none"></path></g></g><mask></mask><g stroke-linecap="round"><g transform="translate(110 130) rotate(0 16.99778398308166 9.794110945770285)"><path d="M-0.37 1.08 C2.7 3.88, 12.4 13.25, 18.19 15.93 C23.98 18.61, 31.64 17.08, 34.37 17.18 M1.63 0.61 C4.61 3.63, 12.15 14.18, 17.5 17.17 C22.85 20.16, 30.81 18.54, 33.74 18.57" stroke="#ffff" stroke-width="1" fill="none"></path></g></g><mask></mask><g stroke-linecap="round"><g transform="translate(143.13027420177514 161.86289879473918) rotate(0 23.92144233522515 -7.072463657418666)"><path d="M0.5 -0.57 C5.95 -3.4, 24.31 -15.9, 32.32 -15.89 C40.32 -15.88, 46.01 -3.16, 48.54 -0.5 M-0.69 1.75 C4.65 -0.35, 23.39 -14.08, 31.5 -14.28 C39.62 -14.48, 45.36 -2.03, 48.01 0.55" stroke="#ffff" stroke-width="1" fill="none"></path></g></g><mask></mask><g stroke-linecap="round"><g transform="translate(111.06963708586989 145.8325802367866) rotate(0 15.37516555596062 8.898624943112907)"><path d="M0.26 0.14 C2.92 2.82, 11.22 12.78, 16.48 15.53 C21.74 18.28, 29.04 16.63, 31.82 16.65 M-1.07 -0.83 C1.43 2.06, 10.46 13.66, 15.76 16.8 C21.06 19.94, 27.72 18.1, 30.72 18.01" stroke="#ffff" stroke-width="1" fill="none"></path></g></g><mask></mask></svg>